<svg width="42" height="37" viewBox="0 0 42 37" fill="none" xmlns="http://www.w3.org/2000/svg">
<path d="M34.9075 29.9634C34.7599 29.3794 34.8758 28.9915 35.3502 28.5994C36.5941 27.5705 37.7874 26.4805 39.0103 25.4242C39.4593 25.0363 39.8325 24.6188 39.6175 23.98C39.4045 23.3475 38.8585 23.2231 38.2681 23.1725C36.6595 23.0334 35.055 22.8436 33.4464 22.7509C32.8139 22.715 32.5271 22.4494 32.3037 21.9012C31.6965 20.4064 31.0366 18.9348 30.4062 17.4484C30.1764 16.9066 29.9023 16.4111 29.2255 16.4195C28.5487 16.428 28.2894 16.9319 28.0638 17.4737C27.4398 18.9622 26.7735 20.4317 26.1832 21.9328C25.9555 22.5147 25.6224 22.7129 25.0173 22.7509C23.3728 22.8584 21.7325 23.0334 20.0901 23.1852C19.5377 23.2358 19.0381 23.4002 18.8567 23.9948C18.6775 24.5809 18.9706 24.9878 19.4049 25.3589C20.6573 26.432 21.8906 27.5304 23.1345 28.6141C23.4529 28.8924 23.767 29.1264 23.6279 29.6598C23.1662 31.414 22.7656 33.1829 22.3081 34.9391C22.112 35.6876 22.6011 36.4086 23.1873 36.4002C23.8134 36.4213 24.1613 36.164 24.5113 35.9553C25.8522 35.1584 27.1741 34.3256 28.5213 33.5392C28.8059 33.3726 29.0484 33.1259 29.527 33.4401C30.9754 34.393 32.5229 35.1921 33.9967 36.1092C34.5743 36.4676 35.1035 36.5161 35.6369 36.1683C36.1893 35.8056 36.1577 35.2469 36.0164 34.665C35.6411 33.1027 35.3038 31.5257 34.9075 29.9634ZM29.8011 31.1315C29.4174 31.1441 29.0336 31.1462 28.6499 31.1315C27.7096 31.0935 27.5662 30.7604 28.1018 29.8854C28.2599 29.8854 28.418 29.8875 28.5761 29.8875C29.0231 30.0478 29.4701 30.0541 29.917 29.896C30.0836 29.896 30.2501 29.8981 30.4167 29.8981C30.9016 30.8279 30.7688 31.0977 29.8011 31.1315ZM32.5925 26.4657C32.4259 26.8199 32.0486 26.7757 31.7513 26.7314C30.8405 26.5986 30.6254 27.0055 30.676 27.8488C30.7119 28.4454 30.9227 29.118 30.4125 29.6556C29.643 29.6598 28.8755 29.6662 28.106 29.6704C27.5178 29.0801 27.794 28.3337 27.8045 27.6675C27.8171 26.938 27.6063 26.647 26.8621 26.7314C26.5015 26.7714 26.0251 26.8663 25.8669 26.3877C25.7362 25.9914 26.1178 25.7679 26.3582 25.5275C27.1256 24.758 27.9226 24.0158 28.671 23.2294C29.0821 22.7972 29.3942 22.7972 29.8053 23.2231C30.5854 24.0306 31.4013 24.8001 32.1961 25.5908C32.4344 25.8269 32.7886 26.0504 32.5925 26.4657Z" fill="white"/>
<path d="M25.8459 11.7179C26.4509 11.2772 26.4446 11.9667 26.5732 12.2302C27.1804 13.4952 27.425 14.8741 27.6696 16.2592C28.4834 15.8839 28.3674 15.2957 28.2472 14.6885C26.4151 5.43084 15.5214 1.05817 7.79223 6.48712C7.36214 6.78861 6.9721 7.14492 6.55887 7.47382C6.33328 7.65513 6.25105 7.83856 6.47453 8.08734C6.69169 8.32769 6.86878 8.28341 7.09227 8.08523C7.43382 7.78374 7.79645 7.50333 8.1633 7.23557C8.46058 7.01842 8.85062 6.6347 9.05723 7.25877C9.20482 7.70362 10.1472 8.08523 9.23645 8.70086C8.35727 9.2933 7.51605 9.97851 6.99529 10.8977C6.41972 11.9118 5.89264 11.3468 5.3255 11.0011C4.50747 10.5035 5.38664 10.2146 5.49627 9.83936C5.55109 9.65172 5.73451 9.49781 5.86944 9.33547C6.05076 9.11831 5.94956 8.95808 5.783 8.79574C5.58271 8.59966 5.4035 8.66081 5.24748 8.84212C5.06405 9.05506 4.89117 9.27644 4.7204 9.49992C1.18473 14.1804 1.35129 20.9186 5.11887 25.5295C8.97079 30.248 15.4834 31.7449 20.9145 29.1411C21.1738 29.0167 21.7662 29.0273 21.5702 28.536C21.3488 27.9858 20.8934 28.2641 20.5012 28.439C19.2426 28.9956 17.9333 29.3773 16.5524 29.4806C16.1244 29.5122 15.6394 29.6239 15.7449 28.9282C15.8144 28.4643 15.3885 27.7834 16.3984 27.7243C17.5116 27.659 18.608 27.3828 19.6263 26.843C19.0528 26.2527 19.0591 26.2717 18.1905 26.5162C14.6696 27.5072 11.4818 26.8409 8.7958 24.3594C6.08238 21.8526 5.08515 18.6965 5.90529 15.0807C7.07963 9.90261 12.1312 6.72114 17.3598 7.78163C22.4304 8.80839 25.8016 13.8452 24.876 19.0169C24.7263 19.8476 24.4691 20.6488 24.0938 21.4099C24.0243 21.5511 23.8514 21.7135 24.0032 21.8758C24.1718 22.0529 24.4017 21.9559 24.5998 21.9095C24.9308 21.8336 24.9814 21.5174 25.0805 21.2665C25.4347 20.3852 25.7257 19.4765 25.7826 18.5257C25.8185 17.948 25.9154 17.5685 26.6133 17.6697C27.035 17.7308 27.21 17.3851 27.1973 17.0836C27.1783 16.6661 26.7672 16.8348 26.5458 16.8517C25.9934 16.8938 25.8227 16.6725 25.7953 16.1348C25.7383 15.0385 25.4432 13.9822 24.9625 12.9997C24.4712 11.9877 25.4263 12.0236 25.8459 11.7179ZM11.4987 27.0391C12.3526 27.5051 13.3519 27.6695 14.3281 27.7328C15.3548 27.8002 14.8214 28.5381 14.9078 28.9809C15.028 29.6007 14.5579 29.5101 14.172 29.4784C12.5528 29.3477 11.0285 28.9113 9.59487 28.1376C9.67498 27.9626 9.74034 27.8382 9.79094 27.7075C10.1177 26.8662 10.5541 26.5247 11.4987 27.0391ZM6.69169 23.2863C7.42961 24.2793 8.2645 25.1606 9.28071 25.8648C9.53161 26.0377 9.75298 26.2042 9.49577 26.5184C9.21958 26.8578 9.16687 27.3701 8.67774 27.5915C8.53015 27.4987 8.37835 27.4144 8.2392 27.3174C7.08594 26.5036 6.09503 25.5253 5.28754 24.3657C5.09146 24.0853 4.77101 23.7269 5.3255 23.5583C5.76403 23.4233 6.12244 22.5189 6.69169 23.2863ZM5.72396 21.5511C6.1899 22.4936 5.29598 22.4661 4.90172 22.7655C4.27766 23.2357 4.22916 22.5842 4.07947 22.2595C3.54606 21.1084 3.30994 19.8771 3.08434 18.6353C2.93676 17.8215 3.16235 17.5158 3.97616 17.6929C4.58547 17.5601 4.86588 17.7625 4.8975 18.4308C4.9481 19.5187 5.23905 20.5729 5.72396 21.5511ZM5.76191 12.8205C5.29597 13.9253 4.92702 15.0575 4.87642 16.2592C4.84269 17.0224 4.31771 16.799 3.75268 16.8517C3.08012 17.0161 2.96839 16.6282 3.08434 15.9135C3.29939 14.5936 3.58822 13.3012 4.15326 12.0847C4.28819 11.7917 4.39994 11.2962 4.86166 11.7263C5.20532 12.0468 6.13087 11.9477 5.76191 12.8205ZM14.3281 6.76331C13.1811 6.86662 12.0595 7.15757 11.0138 7.65513C10.0629 8.10631 10.1114 7.17865 9.8078 6.79704C9.39456 6.27839 9.93851 6.18141 10.2569 6.04226C11.5071 5.49409 12.8101 5.12725 14.172 5.00285C14.5621 4.97334 15.0217 4.89322 14.9142 5.51307C14.8341 5.96214 15.3274 6.67265 14.3281 6.76331ZM20.9082 6.7359C20.613 7.10275 20.5982 7.96295 19.9299 7.72682C18.6733 7.28407 17.4231 6.87927 16.0948 6.72114C15.4666 6.64524 15.8503 6.10973 15.7976 5.98112C15.5762 5.0134 15.9894 4.93117 16.6325 5.00496C17.9987 5.16098 19.2953 5.54259 20.5497 6.08864C20.8238 6.21093 21.2265 6.33953 20.9082 6.7359ZM24.623 11.4016C24.3131 11.6504 24.1381 11.4796 23.9568 11.214C23.2589 10.1936 22.3861 9.34601 21.3804 8.62918C20.632 8.09577 21.4732 7.76266 21.5765 7.34521C21.6587 7.00788 21.8801 6.81391 22.2743 7.08378C23.5583 7.96295 24.6399 9.04241 25.5148 10.3285C25.5739 10.4149 25.6161 10.5119 25.6751 10.6237C25.479 11.0854 24.9625 11.1275 24.623 11.4016Z" fill="white"/>
<path d="M22.8099 29.5842C22.5632 29.1077 22.2006 29.5736 21.9328 29.7107C19.9636 30.7206 17.8701 31.2961 15.669 31.3362C6.55255 31.507 -0.227841 23.333 1.56002 14.3662C3.46384 4.82395 14.7012 0.067555 22.8605 5.35946C26.3055 7.59218 28.4286 10.7252 29.1939 14.771C29.274 15.199 29.3077 15.8421 29.9276 15.6755C30.3956 15.549 30.0478 15.0051 29.9972 14.6783C28.9556 7.72079 22.5231 2.33612 15.0828 2.36142C14.6106 2.39937 13.9064 2.41834 13.2128 2.51954C6.01493 3.56316 0.680851 9.54028 0.44261 16.8161C0.204369 24.0203 5.24539 30.4275 12.3462 31.8464C15.7849 32.5337 19.1098 32.1057 22.2427 30.4528C22.6075 30.2588 23.0144 29.9805 22.8099 29.5842Z" fill="white"/>
<path d="M11.0601 19.2699C11.8465 18.6016 12.5866 18.5004 13.3329 19.2594C14.7455 20.6931 16.1117 20.6193 17.5011 19.2193C18.1231 18.5932 18.764 18.5616 19.5251 19.1413C20.1513 19.6199 21.0726 20.6003 21.4774 20.3178C22.1331 19.8603 21.6566 18.7112 21.7283 17.8595C21.7662 17.4167 21.7852 16.993 21.3425 16.6345C18.8926 14.6443 18.7998 14.6274 16.1876 16.3605C16.1286 16.3984 16.0611 16.4279 16.0126 16.4743C15.5783 16.8854 15.203 16.7969 14.7181 16.4743C12.0932 14.7391 12.0827 14.7539 9.59064 16.5418C9.56323 16.5629 9.53372 16.5818 9.50209 16.5966C9.18584 16.7526 9.05301 17.0014 9.05723 17.3577C9.06777 18.3697 9.06145 19.3817 9.06145 20.6383C9.86683 20.0943 10.5099 19.7359 11.0601 19.2699Z" fill="white"/>
<path d="M35.0192 11.7729C35.7803 9.9639 37.001 8.75162 38.9597 8.11279C37.9835 7.53722 37.1149 7.18091 36.4571 6.59058C35.8119 6.0129 35.6707 5.0009 34.8864 4.25244C34.3572 6.21319 33.0121 7.28633 30.9733 8.04743C33.0669 8.78535 34.3277 9.91963 35.0192 11.7729Z" fill="white"/>
<path d="M41.7869 24.0392C41.4622 23.3498 40.8213 23.354 40.0244 23.4025C40.7644 24.5178 40.2732 25.2156 39.4488 25.884C38.3609 26.7653 37.3721 27.7709 36.2673 28.6269C35.6074 29.1371 35.4936 29.6305 35.7086 30.4042C36.1008 31.8189 36.3833 33.2652 36.7016 34.701C36.8071 35.1754 36.9821 35.6835 36.6426 36.1178C36.3306 36.5142 36.6026 36.5184 36.8766 36.5753C37.8465 36.7819 38.4832 36.1515 38.2702 35.0953C37.9266 33.3812 37.5429 31.6713 37.1191 29.9762C36.9968 29.4871 37.1001 29.2151 37.467 28.9052C38.7235 27.8405 39.9443 26.7357 41.1924 25.6626C41.7026 25.2199 42.1179 24.7413 41.7869 24.0392Z" fill="white"/>
<path d="M32.797 21.4923C33.0078 22.0151 33.2882 22.323 33.8491 22.2091C34.4288 22.3208 34.608 22.148 34.3719 21.6082C33.7584 20.202 33.1575 18.7915 32.5524 17.381C32.4069 17.0437 32.1729 16.7886 31.8272 16.6726C31.5236 16.5714 31.1862 16.544 30.9438 16.7991C30.7055 17.0479 31.007 17.244 31.0892 17.4443C31.6479 18.7978 32.2488 20.1345 32.797 21.4923Z" fill="white"/>
<path d="M16.877 14.9649C17.0478 14.8447 17.227 14.7329 17.3936 14.6064C17.4948 14.5284 17.5812 14.4315 17.7541 14.267C16.9466 13.7462 16.2255 13.2698 15.4897 12.8186C15.3991 12.7638 15.203 12.7954 15.1018 12.8608C14.5094 13.2318 13.9296 13.624 13.3435 14.0077C13.0694 14.1869 13.0862 14.3324 13.3182 14.5769C14.56 15.8862 15.4223 15.9916 16.877 14.9649Z" fill="white"/>
<path d="M26.5711 3.00012C26.8789 3.37119 27.0919 3.82026 27.5367 4.54553C27.7834 3.22571 28.6394 2.71339 29.546 2.21161C28.7532 1.71615 27.9647 1.40412 27.6843 0.510186C27.5473 0.0737618 27.3301 -0.00213793 27.094 0.499644C26.7335 1.26286 26.1452 1.81946 25.3272 2.13149C25.6793 2.60797 26.2633 2.63117 26.5711 3.00012Z" fill="white"/>
</svg>
